<?xml version="1.0" encoding="utf-8"?>
<!-- Generator: Adobe Illustrator 23.0.5, SVG Export Plug-In . SVG Version: 6.00 Build 0)  -->
<svg version="1.1" id="Layer_1" xmlns="http://www.w3.org/2000/svg" xmlns:xlink="http://www.w3.org/1999/xlink" x="0px" y="0px"
	 viewBox="0 0 165.1 26.3" style="enable-background:new 0 0 165.1 26.3;" xml:space="preserve">
<style type="text/css">
	.st0{fill:#D92529;}
	.st1{fill:#FFFFFF;}
</style>
<g>
	<g id="Chai_Mera_1_">
		<path class="st0" d="M96.2,17.6c1.1-2.7,2.1-5.2,3.2-7.7c1.1-2.7,2.2-5.4,3.3-8.1c0.3-0.7,0.6-0.9,1.3-0.9c1.6,0.1,3.2,0,4.9,0
			c0.6,0,0.8,0.1,0.8,0.7c0,7.6,0,15.2,0,22.8c0,0.7-0.3,0.8-0.8,0.7c-1.4,0-2.9-0.1-4.3,0c-0.8,0-0.9-0.2-0.9-0.9c0-3.5,0-7,0-10.6
			c0-0.4,0-0.8,0-1.1c-0.1,0-0.1,0-0.2,0c-1,2.6-2.1,5.3-3.1,7.9c-0.5,1.3-1.1,2.7-1.6,4.1c-0.2,0.6-0.5,0.7-1,0.7
			c-1.2,0-2.6,0.3-3.5-0.1c-0.9-0.5-1-2-1.4-3.1c-1.3-3.1-2.5-6.2-3.9-9.3c0,3.7,0,7.5,0,11.2c0,1.1-0.2,1.4-1.3,1.4
			c-1.3-0.1-2.7-0.1-4,0c-0.6,0-0.8-0.1-0.8-0.8c0-7.6,0-15.1,0-22.7c0-0.7,0.2-0.9,0.9-0.8c1.6,0,3.2,0.1,4.7,0
			c0.8,0,1.2,0.2,1.5,1C91.9,7.1,94,12.2,96.2,17.6z"/>
		<path class="st0" d="M12.9,25.6C6.3,25.5,1.3,21.4,0.5,14.9c-1.1-9,5.7-14.8,13.7-14.2c3.5,0.3,6.4,1.8,8.5,4.7
			c0.5,0.7,0.4,1-0.3,1.5c-1,0.6-1.9,1.2-2.7,1.9c-0.5,0.4-0.8,0.5-1.3-0.1C16,6,11.8,5.6,9.1,7.7c-2.6,2-3.3,6.3-1.5,9.2
			c2.3,3.7,7.9,4,10.7,0.7c0.4-0.5,0.6-0.6,1.2-0.2c1,0.8,2,1.4,3,2.1c0.6,0.4,0.6,0.7,0.2,1.2C20.4,24.2,17,25.6,12.9,25.6z"/>
		<path class="st0" d="M31.4,9.6c1.9-2.2,4.1-2.6,6.4-2.3c2.8,0.4,5,2.9,5.1,6c0.1,3.8,0,7.6,0.1,11.4c0,0.5-0.1,0.7-0.7,0.7
			c-1.5,0-3,0-4.5,0c-0.7,0-0.8-0.3-0.8-0.8c0-2.7,0-5.5,0-8.2c0-0.7,0-1.5-0.3-2.2c-0.5-1.2-1.5-1.7-2.9-1.6c-1.1,0.1-2,0.9-2.3,2
			c-0.3,1.2-0.2,2.5-0.2,3.8c0,2.1,0,4.2,0,6.3c0,0.6-0.2,0.8-0.8,0.8c-1.5,0-2.9,0-4.4,0c-0.7,0-0.8-0.2-0.8-0.8
			c0-7.6,0-15.1,0-22.7c0-0.6,0.2-0.8,0.8-0.8c1.5,0,2.9,0,4.4,0c0.7,0,0.8,0.2,0.8,0.8C31.4,4.3,31.4,6.8,31.4,9.6z"/>
		<path class="st0" d="M58.6,23.7c-3,2.3-5.9,2.5-8.9,1c-3.1-1.6-4.5-4.4-4.6-7.9c-0.1-2.7,0.6-5.2,2.5-7.2c2.9-3,7.1-3.3,10.9-0.7
			c-0.4-1.6,0.6-1.6,1.6-1.5c1.1,0.1,2.3,0,3.4,0c0.6,0,0.9,0.1,0.9,0.8c0,5.4,0,10.8,0,16.2c0,0.7-0.2,0.9-0.9,0.8
			c-1.2-0.1-2.5-0.1-3.7,0C58.8,25.4,58.1,25.3,58.6,23.7z"/>
		<path class="st0" d="M158.5,9c-0.3-1.4,0.4-1.6,1.5-1.5c1.2,0.1,2.5,0,3.7,0c0.6,0,0.7,0.2,0.7,0.7c0,5.5,0,10.9,0,16.4
			c0,0.5-0.1,0.7-0.6,0.7c-1.5,0-3.1,0-4.6,0c-1.2,0-0.4-0.9-0.8-1.4c-1.6,1.3-3.4,1.9-5.5,1.7c-4.1-0.3-7.4-3.8-7.7-7.9
			c-0.1-1.9,0-3.8,0.7-5.6C147.8,7.8,153.7,5.3,158.5,9z"/>
		<path class="st0" d="M117.5,18.7c0.7,1.4,1.9,1.9,3.2,2.1c1.5,0.2,3.1,0.1,4.5-0.7c0.5-0.3,0.8-0.2,1.2,0.2c0.3,0.4,0.7,0.7,1,1
			c1.2,1.3,1.2,1.3-0.1,2.4c-4.4,3.6-13.8,2.6-15.3-5.3c-0.9-4.5,0.9-8.7,5.3-10.5c4.2-1.8,9.1-0.3,11.3,3.3c1.3,2.1,1.5,4.5,1.2,7
			c-0.1,0.8-0.6,0.5-1,0.5c-3.5,0-7,0-10.5,0C118,18.7,117.8,18.7,117.5,18.7z"/>
		<path class="st0" d="M137.6,11.9c0.5-1,0.7-1.8,1.2-2.5c1.2-1.8,2.9-2.4,5-2.2c0.6,0,0.7,0.3,0.7,0.9c0,1.3-0.1,2.6,0,3.9
			c0,0.8-0.2,1-1,0.9c-3.4-0.1-5.3,1.4-5.9,4.8c-0.1,0.3,0,0.7,0,1.1c0,1.9,0,3.8,0,5.7c0,0.6-0.1,0.8-0.8,0.8c-1.5-0.1-2.9,0-4.4,0
			c-0.6,0-0.8-0.1-0.8-0.8c0-5.4,0-10.8,0-16.3c0-0.7,0.2-0.8,0.8-0.8c1.5,0,2.9,0,4.4,0c0.6,0,0.8,0.2,0.7,0.7
			C137.6,9.4,137.6,10.5,137.6,11.9z"/>
		<path class="st0" d="M67.3,16.3c0-2.7,0-5.3,0-8c0-0.7,0.2-0.9,0.9-0.9c1.4,0.1,2.8,0,4.2,0c0.6,0,0.9,0.1,0.9,0.8
			c0,5.4,0,10.8,0,16.2c0,0.7-0.2,0.9-0.9,0.8c-1.4,0-2.9-0.1-4.3,0c-0.7,0-0.8-0.2-0.8-0.9C67.3,21.7,67.3,19,67.3,16.3z"/>
		<path class="st0" d="M70.5,1c0.8,0.1,2-0.4,2.6,0.2c0.6,0.6,0.2,1.8,0.2,2.7c0,2.2,0,2.2-2.2,2.2c-1.2,0-2.8,0.5-3.5-0.2
			c-0.6-0.7-0.1-2.3-0.2-3.4c-0.1-1.1,0.2-1.6,1.4-1.4C69.2,1.1,69.7,1,70.5,1z"/>
		<path class="st1" d="M54.8,20.4c-2.2,0-3.9-1.8-3.9-4c0-2.2,1.7-3.9,3.9-3.9c2.3,0,3.9,1.6,3.9,4C58.7,18.7,57,20.4,54.8,20.4z"/>
		<path class="st1" d="M154.9,20.4c-2.3,0-4-1.7-4-3.9c0-2.2,1.6-3.9,3.8-4c2.3,0,4,1.6,4,3.9C158.8,18.6,157.1,20.3,154.9,20.4z"/>
		<path class="st1" d="M124.2,14.5c-2.1,0-4.2,0-6.3,0c-0.6,0-0.5-0.3-0.3-0.7c0.6-1.1,2.1-1.8,3.6-1.7
			C122.5,12.2,124,13.1,124.2,14.5z"/>
	</g>
	<g id="TEA_HOUSE_1_">
		<path class="st0" d="M50.1,39.6h-1.5c-0.1,0-0.1,0-0.1-0.1v-1.3c0-0.1,0-0.1,0.1-0.1h4.7c0.1,0,0.1,0,0.1,0.1v1.3
			c0,0.1,0,0.1-0.1,0.1h-1.5v4.1c0,0.1,0,0.1-0.1,0.1h-1.5c-0.1,0-0.1,0-0.1-0.1V39.6z"/>
		<path class="st0" d="M60.6,41.6c0,0.1,0,0.1-0.1,0.1h-2.1v0.7h2.4c0.1,0,0.1,0,0.1,0.1v1.2c0,0.1,0,0.1-0.1,0.1h-4
			c-0.1,0-0.1,0-0.1-0.1v-5.5c0-0.1,0-0.1,0.1-0.1h3.9c0.1,0,0.1,0,0.1,0.1v1.2c0,0.1,0,0.1-0.1,0.1h-2.3v0.7h2.1
			c0.1,0,0.1,0,0.1,0.1V41.6z"/>
		<path class="st0" d="M66,42.5c-0.1,0.2-0.1,0.4-0.2,0.6s-0.1,0.4-0.2,0.6c0,0.1,0,0.1-0.1,0.1H64c0,0-0.1,0-0.1,0c0,0,0-0.1,0-0.1
			l1.7-5.5c0,0,0-0.1,0.1-0.1h2.1c0.1,0,0.1,0,0.1,0.1l1.8,5.5c0,0,0,0.1,0,0.1c0,0,0,0-0.1,0H68c0,0,0,0-0.1,0c0,0,0,0,0-0.1
			l-0.4-1.3H66z M67.2,41.2c0-0.1-0.1-0.3-0.1-0.4c0-0.1-0.1-0.3-0.1-0.4c0-0.1-0.1-0.2-0.1-0.3c0-0.1-0.1-0.2-0.1-0.3l0,0
			c0,0,0-0.1,0-0.1c0,0,0,0,0,0c0,0,0,0,0-0.1c0,0,0,0.1,0,0.1c0,0,0,0.1,0,0.1c0,0.1,0,0.2-0.1,0.3c0,0.1,0,0.2-0.1,0.2h0
			c0,0.2-0.1,0.3-0.1,0.4c0,0.1-0.1,0.3-0.1,0.4H67.2z"/>
		<path class="st0" d="M79,38.2c0.1,0,0.1,0,0.1,0.1v1.9H81v-1.9c0-0.1,0-0.1,0.1-0.1h1.5c0.1,0,0.1,0,0.1,0.1v5.5
			c0,0.1,0,0.1-0.1,0.1h-1.5c-0.1,0-0.1,0-0.1-0.1v-2.1h-1.9v2.1c0,0.1,0,0.1-0.1,0.1h-1.5c-0.1,0-0.1,0-0.1-0.1v-5.5
			c0-0.1,0-0.1,0.1-0.1H79z"/>
		<path class="st0" d="M87.9,43.8c-0.4-0.1-0.7-0.4-1-0.6c-0.3-0.3-0.5-0.6-0.6-0.9c-0.1-0.4-0.2-0.7-0.2-1.1c0-0.4,0.1-0.8,0.2-1.2
			c0.1-0.4,0.4-0.7,0.6-0.9c0.3-0.3,0.6-0.5,1-0.6c0.4-0.1,0.8-0.2,1.3-0.2c0.5,0,0.9,0.1,1.3,0.2c0.4,0.1,0.7,0.3,1,0.6
			c0.3,0.3,0.5,0.6,0.6,0.9c0.1,0.4,0.2,0.7,0.2,1.2c0,0.4-0.1,0.8-0.2,1.2c-0.1,0.4-0.4,0.7-0.6,0.9c-0.3,0.3-0.6,0.5-1,0.6
			c-0.4,0.1-0.8,0.2-1.3,0.2C88.7,44,88.3,43.9,87.9,43.8z M89.7,42.5c0.2-0.1,0.3-0.2,0.4-0.3c0.1-0.1,0.2-0.3,0.2-0.5
			c0.1-0.2,0.1-0.4,0.1-0.6c0-0.2,0-0.4-0.1-0.6c-0.1-0.2-0.1-0.4-0.2-0.5c-0.1-0.1-0.2-0.3-0.4-0.3c-0.2-0.1-0.3-0.1-0.5-0.1
			c-0.2,0-0.4,0-0.5,0.1c-0.2,0.1-0.3,0.2-0.4,0.3c-0.1,0.1-0.2,0.3-0.2,0.5C88,40.6,88,40.8,88,41c0,0.2,0,0.4,0.1,0.6
			c0.1,0.2,0.1,0.4,0.2,0.5c0.1,0.1,0.2,0.2,0.4,0.3c0.2,0.1,0.3,0.1,0.5,0.1C89.4,42.6,89.6,42.5,89.7,42.5z"/>
		<path class="st0" d="M97.3,38.2c0.1,0,0.1,0,0.1,0.1v3c0,0.4,0.1,0.7,0.2,1c0.1,0.2,0.4,0.4,0.7,0.4c0.3,0,0.6-0.1,0.7-0.3
			c0.1-0.2,0.2-0.6,0.2-1v-3c0-0.1,0-0.1,0.1-0.1h1.5c0.1,0,0.1,0,0.1,0.1v2.9c0,0.9-0.2,1.6-0.7,2.1c-0.5,0.5-1.1,0.7-2,0.7
			c-0.4,0-0.8-0.1-1.1-0.2s-0.6-0.3-0.8-0.5c-0.2-0.2-0.4-0.5-0.5-0.9c-0.1-0.4-0.2-0.8-0.2-1.3v-2.9c0-0.1,0-0.1,0.1-0.1H97.3z"/>
		<path class="st0" d="M104.6,42.2C104.6,42.2,104.6,42.2,104.6,42.2c0.1-0.1,0.1-0.1,0.1-0.1c0.2,0.1,0.4,0.2,0.7,0.3
			c0.3,0.1,0.6,0.1,0.9,0.1c0.5,0,0.7-0.1,0.7-0.3c0-0.2-0.3-0.3-0.8-0.5c-0.2-0.1-0.5-0.2-0.7-0.3c-0.2-0.1-0.4-0.2-0.6-0.4
			c-0.2-0.1-0.3-0.3-0.4-0.5c-0.1-0.2-0.1-0.4-0.1-0.7c0-0.3,0.1-0.5,0.2-0.7c0.1-0.2,0.3-0.4,0.5-0.6c0.2-0.2,0.5-0.3,0.8-0.4
			c0.3-0.1,0.6-0.1,1-0.1c0.4,0,0.7,0,1,0.1c0.3,0.1,0.5,0.1,0.7,0.2c0.1,0,0.1,0.1,0.1,0.1l-0.4,1.2c0,0.1-0.1,0.1-0.1,0.1
			c-0.1-0.1-0.3-0.1-0.5-0.2c-0.2-0.1-0.5-0.1-0.8-0.1c-0.2,0-0.3,0-0.5,0.1c-0.1,0-0.2,0.1-0.2,0.2c0,0.1,0.1,0.2,0.2,0.3
			c0.2,0.1,0.4,0.2,0.8,0.3c0.6,0.2,1,0.4,1.2,0.7c0.3,0.3,0.4,0.7,0.4,1.1c0,0.2,0,0.5-0.1,0.7c-0.1,0.2-0.3,0.4-0.5,0.6
			c-0.2,0.2-0.5,0.3-0.8,0.4c-0.3,0.1-0.7,0.2-1.2,0.2c-0.2,0-0.4,0-0.5,0c-0.2,0-0.4-0.1-0.5-0.1c-0.2,0-0.3-0.1-0.4-0.1
			c-0.1,0-0.2-0.1-0.3-0.1c0,0,0,0-0.1-0.1c0,0,0,0,0-0.1L104.6,42.2z"/>
		<path class="st0" d="M116.1,41.6c0,0.1,0,0.1-0.1,0.1h-2.1v0.7h2.4c0.1,0,0.1,0,0.1,0.1v1.2c0,0.1,0,0.1-0.1,0.1h-4
			c-0.1,0-0.1,0-0.1-0.1v-5.5c0-0.1,0-0.1,0.1-0.1h3.9c0.1,0,0.1,0,0.1,0.1v1.2c0,0.1,0,0.1-0.1,0.1h-2.3v0.7h2.1
			c0.1,0,0.1,0,0.1,0.1V41.6z"/>
	</g>
</g>
</svg>
