<?xml version="1.0" encoding="utf-8"?>
<!-- Generator: Adobe Illustrator 23.0.5, SVG Export Plug-In . SVG Version: 6.00 Build 0)  -->
<svg version="1.1" id="Layer_1" xmlns="http://www.w3.org/2000/svg" xmlns:xlink="http://www.w3.org/1999/xlink" x="0px" y="0px"
	 viewBox="0 0 165.1 26.3" style="enable-background:new 0 0 165.1 26.3;" xml:space="preserve">
<style type="text/css">
	.st0{display:none;fill:#D32428;}
	.st1{fill:#D32428;}
</style>
<g>
	<path class="st0" d="M172.2,32.9c-60.7,0-121.6,0-182.3,0c0-12.6,0-25.5,0-38.1c60.7,0,121.6,0,182.3,0
		C172.2,7.5,172.2,20.1,172.2,32.9z M15.4,25.7c-3.7-0.5-5.3-1.8-6.1-5.5c-0.4-2.3-0.5-4.8-0.5-7.1c0.2-2.1,0.5-4.3,1.2-6.4
		c0.9-2.3,2.7-3.2,4.8-3c1.4,0,2.5,0.7,2.7,2C17.8,6.8,18,8,16.8,9.1c-0.4,0.2-0.4,0.9-0.2,1.4c0.5,1.6,2.5,2.3,3.9,1.8
		c1.4-0.5,2.1-2,1.6-3.7c-0.4-0.7-0.7-1.4-1.2-2.1C18.7,3.9,16.2,3,13,3.2C6.6,3.8,1.8,9.6,2.5,16C3.3,21.9,9.5,26.5,15.4,25.7z
		 M31,25.3c0-8.2,0-16.2,0-24.2c-2,0-3.7,0-5.5,0c0,0.5,0,0.9,0,1.2c0,7.1,0,14.4,0,21.5c0,0.5-0.2,1.4,0.9,1.2
		C27.6,25.3,29.2,25.3,31,25.3z M83,4.8c0.2,0,0.2,0,0.4,0c2.8,6.8,5.9,13.7,8.9,20.8c1.2-2.8,2.3-5.2,3.2-7.7c0-0.2,0-0.5,0-0.5
		c-2-4.3-4.1-8.7-6.1-13c-0.2-0.4-0.5-0.7-0.9-0.7c-2,0-3.7,0-5.7,0c0,7.3,0,14.2,0,21.4H83C83,18.2,83,11.4,83,4.8z M107.2,25.3
		c0-2.5,0-4.8,0-7.3c0-4.4,0-8.9,0-13.3c0-0.5,0.2-1.2-0.7-1.2c-1.4,0-2.8,0-4.4,0c-0.4,0-0.7,0.7-0.9,1.2c0,0.5,0.4,1.2,0.4,1.8
		c0,5.7,0,11.6,0,17.3c0,0.5,0,0.9,0,1.6C103.5,25.3,105.2,25.3,107.2,25.3z M125.9,15.3c0-3.9-3-6.2-7.3-6.2
		c-4.4,0.2-8.2,3.7-8.2,8c-0.2,4.3,3.2,8,7.7,8.5c4.1,0.4,7.5-2.1,8.4-6.2c-0.4,0.5-0.5,1.1-0.9,1.6c-1.6,2.5-4.6,3.2-6.8,1.4
		c-2.3-1.8-2.7-4.4-2.7-7.1C119.1,15.3,122.5,15.3,125.9,15.3z M33.3,10.3c2.1-0.5,2.7,0,2.7,2.1c0,3.7,0,7.5,0,11.4
		c0,0.5,0,0.9,0,1.4c1.6,0,2.8,0,4.3,0c1.1,0,1.2-0.4,1.2-1.2c0-3.7,0-7.5,0-11.2c0-2-1.1-3.2-2.8-3.7C36.7,8.6,34.9,9.1,33.3,10.3z
		 M135.1,9.5c-1.8,0-3.4,0-5,0c-0.2,0-0.7,0.5-0.7,0.9c0,4.6,0,9.4,0,14.1c0,0.4,0.4,0.9,0.5,0.9c1.6,0,3.2,0,5,0
		C135.1,20,135.1,15,135.1,9.5z M70.3,9.5c-1.6,0-2.8,0-4.3,0c-1.1,0-1.2,0.4-1.2,1.2c0,4.4,0,9.1,0,13.5c0,0.4,0,0.5,0.2,0.9
		c1.8,0,3.6,0,5.3,0C70.3,20,70.3,14.8,70.3,9.5z M60.9,24c-0.4-0.9-0.7-1.4-0.7-2c0-2.1,0-4.1,0-6.2c0-3.9-3-6.8-6.8-6.8
		c0.4,0.9,1.1,2,1.2,3c0.2,3.2,0.2,6.4,0,9.6c0,1.8,0.9,3.2,2.5,3.6C58.8,26,60.4,25.3,60.9,24z M162.4,24c-0.4-0.7-0.7-1.2-0.7-1.8
		c0-2.1,0-4.3,0-6.4c0-3.7-3.2-6.8-6.8-6.6c0.4,1.1,1.1,2.1,1.1,3.2c0.2,3,0.2,6.1,0,9.3c0,2,0.7,3.4,2.3,3.9
		C160,26,161.7,25.5,162.4,24z M53.8,23.3c-2.3,0.5-3.4,0.2-3.7-1.4c-0.2-1.4-0.2-2.8,1.1-4.1c0.7-0.7,1.4-1.2,2.1-2.1
		c-1.6,0.7-3,1.2-4.6,1.8c-0.7,0.4-1.4,0.7-2.1,1.1c-1.4,0.9-2.1,2.1-1.8,3.7c0.2,1.6,1.2,2.3,2.7,2.8
		C49.5,26.2,51.8,25.5,53.8,23.3z M154.4,15.9c-2.1,0.9-4.3,1.8-6.4,3c-1.4,0.7-2,2-1.8,3.7c0.2,1.4,1.2,2.3,2.5,2.8
		c2.1,0.9,5,0.2,6.4-1.8c-2.8,0.5-3.9-0.5-3.6-3.4C151.7,18.2,153.1,17.1,154.4,15.9z M138.3,9.5c1.4,0,2.3,0.7,2.5,2
		c0.2,1.2-0.4,2.1-1.2,2.8c-0.7,0.5-0.5,1.1-0.2,1.6c1.1,1.6,3.6,1.2,4.4-0.4c0.9-1.4,0.7-3.6-0.4-4.8
		C142.4,9.3,140.3,8.7,138.3,9.5z M67.5,7c1.6,0,3.2-1.4,3.2-3c0-1.4-1.4-2.8-2.8-2.8c-1.6,0-3,1.2-3.2,2.8C64.5,5.5,65.9,7,67.5,7z
		 M50.8,9.3c-2.3,0.4-4.1,1.1-5.2,3c-0.5,1.2,0,3,1.2,3.4c1.2,0.5,2.7,0,3.4-1.4C48.6,12.8,48.6,10.9,50.8,9.3z M151.7,14.3
		c-1.6-1.4-1.6-3.6,0.5-5.2c-2.3,0.4-4.1,1.1-5.2,3c-0.5,1.2,0,2.8,1.2,3.4C149.5,16.2,151,15.7,151.7,14.3z"/>
	<path class="st1" d="M15.4,25.7c-5.9,0.9-12.1-3.7-12.6-9.4C1.8,9.6,6.6,3.8,13.2,3.4c3-0.2,5.7,0.7,7.8,3c0.5,0.5,0.9,1.4,1.2,2.1
		c0.5,1.8,0,3.2-1.6,3.7s-3.4-0.2-3.9-1.8c-0.2-0.4,0-1.1,0.2-1.4C18.2,8,18,6.8,17.7,5.5c-0.4-1.2-1.2-1.8-2.5-2
		c-2.3-0.4-4.3,0.7-5,3c-0.7,2-1.2,4.3-1.2,6.4c-0.2,2.3,0,4.8,0.5,7.1C10,23.7,11.6,25.1,15.4,25.7z"/>
	<path class="st1" d="M31,25.3c-1.8,0-3.2,0-4.8,0c-1.1,0-0.9-0.7-0.9-1.2c0-7.1,0-14.4,0-21.5c0-0.4,0-0.7,0-1.2c1.8,0,3.6,0,5.5,0
		C31,9.1,31,17.1,31,25.3z"/>
	<path class="st1" d="M83,4.8c0,6.6,0,13.3,0,19.9h-0.2c0-6.9,0-14.1,0-21.4c2,0,3.9,0,5.7,0c0.4,0,0.7,0.4,0.9,0.7
		c2.1,4.3,4.1,8.7,6.1,13c0,0.2,0,0.4,0,0.5c-1.1,2.5-2.1,5-3.2,7.7c-3-7.1-5.9-13.9-8.9-20.8C83.2,4.8,83.2,4.8,83,4.8z"/>
	<path class="st1" d="M107.2,25.3c-2,0-3.7,0-5.5,0c0-0.5,0-1.1,0-1.6c0-5.7,0-11.6,0-17.3c0-0.5-0.4-1.2-0.4-1.8
		c0-0.4,0.5-1.1,0.9-1.2c1.4-0.2,2.8,0,4.4,0c0.9,0,0.7,0.7,0.7,1.2c0,4.4,0,8.9,0,13.3C107.2,20.5,107.2,22.8,107.2,25.3z"/>
	<path class="st1" d="M125.9,15.3c-3.4,0-6.8,0-10.1,0c0.2,2.8,0.5,5.3,2.7,7.1c2.1,1.6,5.2,1.1,6.8-1.4c0.4-0.5,0.5-1.1,0.9-1.6
		c-0.7,4.3-4.1,6.8-8.4,6.2c-4.4-0.5-7.8-4.3-7.7-8.5s3.7-8,8.2-8C122.9,8.9,125.9,11.2,125.9,15.3z M121.1,15.2
		c-0.4-1.6-0.4-3-0.7-4.3c-0.2-0.5-0.9-1.4-1.4-1.4c-0.5,0-1.6,0.5-1.8,1.1c-0.7,1.4-1.1,3-1.6,4.6
		C117.5,15.2,119.1,15.2,121.1,15.2z"/>
	<path class="st1" d="M33.3,10.3c1.6-1.2,3.4-1.8,5.3-1.2c2,0.5,2.8,1.8,2.8,3.7c0,3.7,0,7.5,0,11.2c0,0.9-0.2,1.2-1.2,1.2
		c-1.4,0-2.7,0-4.3,0c0-0.5,0-1.1,0-1.4c0-3.7,0-7.5,0-11.4C36,10.3,35.3,9.8,33.3,10.3z"/>
	<path class="st1" d="M135.1,9.5c0,5.3,0,10.5,0,15.8c-1.8,0-3.4,0-5,0c-0.2,0-0.5-0.5-0.5-0.9c0-4.6,0-9.4,0-14.1
		c0-0.4,0.5-0.9,0.7-0.9C131.8,9.5,133.4,9.5,135.1,9.5z"/>
	<path class="st1" d="M70.3,9.5c0,5.3,0,10.5,0,15.7c-1.8,0-3.6,0-5.3,0c0-0.4-0.2-0.7-0.2-0.9c0-4.4,0-9.1,0-13.5
		c0-0.9,0.2-1.2,1.2-1.2C67.3,9.6,68.7,9.5,70.3,9.5z"/>
	<path class="st1" d="M60.9,24c-0.7,1.2-2.3,2-3.9,1.4c-1.6-0.4-2.5-2-2.5-3.6c0-3.2,0.2-6.4,0-9.6c0-1.1-0.7-2.1-1.2-3
		C57,9.1,60,12.1,60,16c0,2.1,0,4.1,0,6.2C60.2,22.8,60.6,23.3,60.9,24z"/>
	<path class="st1" d="M162.4,24c-0.9,1.4-2.5,2-3.9,1.4c-1.6-0.5-2.3-2-2.3-3.9c0-3,0.2-6.1,0-9.3c0-1.1-0.7-2.1-1.1-3.2
		c3.4-0.2,6.6,2.7,6.8,6.6c0,2.1,0,4.3,0,6.4C161.7,22.8,162,23.3,162.4,24z"/>
	<path class="st1" d="M53.8,23.3c-1.8,2.1-4.3,2.8-6.4,2c-1.2-0.5-2.3-1.2-2.7-2.8c-0.2-1.6,0.5-2.8,1.8-3.7
		c0.7-0.4,1.4-0.7,2.1-1.1c1.4-0.5,2.8-1.2,4.6-1.8c-0.9,0.7-1.6,1.4-2.1,2.1c-1.1,1.2-1.2,2.7-1.1,4.1
		C50.4,23.5,51.5,23.9,53.8,23.3z"/>
	<path class="st1" d="M154.4,15.9c-1.2,1.2-2.7,2.3-2.8,4.3c-0.4,3,0.7,3.9,3.6,3.4c-1.4,2-4.1,2.8-6.4,1.8
		c-1.2-0.5-2.3-1.4-2.5-2.8c-0.2-1.6,0.4-3,1.8-3.7C150.1,17.6,152.2,16.8,154.4,15.9z"/>
	<path class="st1" d="M138.3,9.5c2-0.7,3.9-0.2,5.2,1.2c1.1,1.2,1.2,3.4,0.4,4.8c-1.1,1.6-3.4,2-4.4,0.4c-0.4-0.5-0.5-1.1,0.2-1.6
		c0.9-0.7,1.4-1.6,1.2-2.8C140.7,10.2,139.8,9.5,138.3,9.5z"/>
	<path class="st1" d="M67.5,7c-1.6,0-3-1.6-2.8-3c0-1.6,1.6-2.8,3.2-2.8c1.4,0,2.8,1.4,2.8,2.8C70.7,5.5,69.1,7.1,67.5,7z"/>
	<path class="st1" d="M50.8,9.3c-2.1,1.6-2,3.7-0.5,5.2c-0.7,1.4-2.1,2-3.4,1.4c-1.2-0.5-1.8-2.1-1.2-3.4
		C46.7,10.2,48.5,9.6,50.8,9.3z"/>
	<path class="st1" d="M151.7,14.3c-0.7,1.4-2.1,2-3.4,1.4c-1.2-0.5-1.8-2.1-1.2-3.4c0.9-2,2.8-2.7,5.2-3
		C150.1,10.9,150.1,12.8,151.7,14.3z"/>
	<path class="st0" d="M121.1,15.2c-2,0-3.6,0-5.7,0c0.5-1.8,0.9-3.2,1.6-4.6c0.2-0.5,1.2-1.1,1.8-1.1s1.2,0.9,1.4,1.4
		C120.7,12.1,120.7,13.5,121.1,15.2z"/>
</g>
</svg>
