<?xml version="1.0" encoding="utf-8"?>
<!-- Generator: Adobe Illustrator 23.0.5, SVG Export Plug-In . SVG Version: 6.00 Build 0)  -->
<svg version="1.1" id="Layer_1" xmlns="http://www.w3.org/2000/svg" xmlns:xlink="http://www.w3.org/1999/xlink" x="0px" y="0px"
	 viewBox="0 0 150 26.3" style="enable-background:new 0 0 150 26.3;" xml:space="preserve">
<style type="text/css">
	.st0{fill:#D92529;}
	.st1{fill:#FFFFFF;}
</style>
<g>
	<g id="Chai_Mera_1_">
		<path class="st0" d="M87.6,16.6c1-2.4,1.9-4.7,2.9-7c1-2.4,2-4.9,3-7.3c0.2-0.6,0.5-0.8,1.2-0.8c1.5,0,2.9,0,4.4,0
			c0.5,0,0.8,0.1,0.8,0.7c0,6.9,0,13.8,0,20.6c0,0.6-0.3,0.7-0.8,0.7c-1.3,0-2.6-0.1-3.9,0c-0.7,0-0.8-0.2-0.8-0.8
			c0-3.2,0-6.4,0-9.6c0-0.3,0-0.7,0-1c-0.1,0-0.1,0-0.2,0c-0.9,2.4-1.9,4.8-2.8,7.2c-0.5,1.2-1,2.4-1.4,3.7
			c-0.2,0.5-0.4,0.7-0.9,0.6c-1.1,0-2.3,0.3-3.2-0.1c-0.9-0.4-0.9-1.8-1.3-2.8c-1.1-2.8-2.2-5.6-3.5-8.4c0,3.4,0,6.8,0,10.2
			c0,1-0.2,1.3-1.2,1.2c-1.2-0.1-2.4,0-3.7,0c-0.5,0-0.7-0.1-0.7-0.7c0-6.8,0-13.7,0-20.5c0-0.6,0.2-0.8,0.8-0.8
			c1.4,0,2.9,0.1,4.3,0c0.7,0,1.1,0.2,1.3,0.9C83.7,7.1,85.6,11.7,87.6,16.6z"/>
		<path class="st0" d="M12.2,23.9C6.2,23.8,1.7,20,1,14.1C0,6,6.2,0.8,13.4,1.3c3.2,0.2,5.8,1.6,7.7,4.3c0.4,0.6,0.4,0.9-0.3,1.3
			c-0.9,0.5-1.7,1.1-2.5,1.7c-0.5,0.4-0.7,0.4-1.2-0.1C15,6.1,11.2,5.8,8.8,7.7c-2.4,1.8-3,5.7-1.3,8.3c2.1,3.3,7.2,3.7,9.7,0.6
			c0.4-0.4,0.6-0.6,1.1-0.2c0.9,0.7,1.8,1.3,2.7,1.9c0.5,0.3,0.5,0.6,0.2,1.1C19,22.5,15.9,23.9,12.2,23.9z"/>
		<path class="st0" d="M28.9,9.3c1.7-2,3.7-2.4,5.8-2.1c2.5,0.3,4.6,2.6,4.7,5.4c0.1,3.4,0,6.9,0.1,10.3c0,0.5-0.1,0.6-0.6,0.6
			c-1.4,0-2.7,0-4.1,0c-0.6,0-0.7-0.2-0.7-0.8c0-2.5,0-4.9,0-7.4c0-0.7,0-1.4-0.3-2c-0.5-1.1-1.4-1.6-2.6-1.5
			c-1,0.1-1.8,0.8-2.1,1.8c-0.3,1.1-0.2,2.3-0.2,3.4c0,1.9,0,3.8,0,5.7c0,0.6-0.2,0.7-0.7,0.7c-1.3,0-2.7,0-4,0
			c-0.6,0-0.7-0.2-0.7-0.7c0-6.8,0-13.7,0-20.5c0-0.6,0.1-0.7,0.7-0.7c1.3,0,2.7,0,4,0c0.6,0,0.7,0.2,0.7,0.7
			C28.9,4.5,28.9,6.8,28.9,9.3z"/>
		<path class="st0" d="M53.5,22.1c-2.7,2.1-5.3,2.3-8,0.9c-2.8-1.5-4-4-4.1-7.1c-0.1-2.5,0.5-4.7,2.3-6.5c2.6-2.7,6.4-3,9.8-0.6
			c-0.3-1.4,0.5-1.4,1.5-1.4c1,0.1,2.1,0,3.1,0c0.6,0,0.8,0.1,0.8,0.8c0,4.9,0,9.8,0,14.6c0,0.6-0.2,0.8-0.8,0.8
			c-1.1,0-2.2-0.1-3.3,0C53.8,23.6,53.1,23.5,53.5,22.1z"/>
		<path class="st0" d="M144,8.8c-0.3-1.3,0.4-1.4,1.4-1.4c1.1,0.1,2.2,0,3.3,0c0.5,0,0.7,0.2,0.7,0.7c0,4.9,0,9.9,0,14.8
			c0,0.4-0.1,0.6-0.6,0.6c-1.4,0-2.8,0-4.2,0c-1.1,0-0.4-0.9-0.7-1.3c-1.4,1.2-3.1,1.7-5,1.6c-3.7-0.3-6.7-3.4-6.9-7.1
			c-0.1-1.7,0-3.4,0.7-5C134.3,7.7,139.6,5.4,144,8.8z"/>
		<path class="st0" d="M106.8,17.6c0.7,1.3,1.7,1.7,2.9,1.9c1.4,0.2,2.8,0.1,4.1-0.7c0.5-0.3,0.8-0.2,1.1,0.2
			c0.3,0.3,0.6,0.6,0.9,0.9c1.1,1.2,1.1,1.2-0.1,2.1c-4,3.2-12.5,2.4-13.9-4.8c-0.8-4.1,0.8-7.9,4.8-9.5c3.8-1.6,8.2-0.3,10.2,3
			c1.2,1.9,1.4,4.1,1.1,6.3c-0.1,0.7-0.6,0.4-0.9,0.4c-3.2,0-6.3,0-9.5,0C107.3,17.6,107.1,17.6,106.8,17.6z"/>
		<path class="st0" d="M125.1,11.5c0.4-0.9,0.6-1.6,1.1-2.2c1.1-1.6,2.6-2.2,4.5-2c0.5,0,0.6,0.3,0.6,0.8c0,1.2,0,2.4,0,3.5
			c0,0.7-0.1,0.9-0.9,0.8c-3.1-0.1-4.8,1.3-5.3,4.4c-0.1,0.3,0,0.6,0,1c0,1.7,0,3.4,0,5.2c0,0.5-0.1,0.8-0.7,0.7c-1.3,0-2.7,0-4,0
			c-0.5,0-0.7-0.1-0.7-0.7c0-4.9,0-9.8,0-14.7c0-0.6,0.2-0.7,0.7-0.7c1.3,0,2.7,0,4,0c0.5,0,0.7,0.1,0.7,0.7
			C125,9.1,125.1,10.2,125.1,11.5z"/>
		<path class="st0" d="M61.4,15.5c0-2.4,0-4.8,0-7.2c0-0.7,0.2-0.9,0.8-0.8c1.3,0.1,2.5,0,3.8,0c0.6,0,0.8,0.1,0.8,0.8
			c0,4.9,0,9.7,0,14.6c0,0.6-0.2,0.8-0.8,0.8c-1.3,0-2.6,0-3.9,0c-0.6,0-0.8-0.2-0.8-0.8C61.4,20.3,61.4,17.9,61.4,15.5z"/>
		<path class="st0" d="M64.3,1.6c0.7,0.1,1.8-0.4,2.3,0.2c0.5,0.5,0.1,1.6,0.2,2.5c0,2,0,2-2,1.9c-1.1,0-2.5,0.5-3.2-0.2
			c-0.5-0.6-0.1-2-0.2-3.1c-0.1-1,0.2-1.4,1.3-1.3C63.1,1.6,63.6,1.6,64.3,1.6z"/>
		<path class="st1" d="M50.1,19.1c-2,0-3.6-1.6-3.5-3.6c0-2,1.5-3.5,3.5-3.5c2.1,0,3.6,1.5,3.6,3.6C53.6,17.6,52.1,19.1,50.1,19.1z"
			/>
		<path class="st1" d="M140.7,19.1c-2,0-3.6-1.5-3.6-3.6c0-2,1.5-3.6,3.5-3.6c2.1,0,3.6,1.4,3.6,3.5
			C144.2,17.5,142.8,19.1,140.7,19.1z"/>
		<path class="st1" d="M112.9,13.8c-1.9,0-3.8,0-5.7,0c-0.6,0-0.4-0.3-0.3-0.6c0.5-1,1.9-1.7,3.3-1.6
			C111.4,11.7,112.8,12.5,112.9,13.8z"/>
	</g>
	<g id="TEA_HOUSE_1_">
		<path class="st0" d="M45.9,36.5h-1.3c-0.1,0-0.1,0-0.1-0.1v-1.1c0-0.1,0-0.1,0.1-0.1h4.2c0.1,0,0.1,0,0.1,0.1v1.1
			c0,0.1,0,0.1-0.1,0.1h-1.3v3.8c0,0.1,0,0.1-0.1,0.1h-1.4c-0.1,0-0.1,0-0.1-0.1V36.5z"/>
		<path class="st0" d="M55.4,38.3C55.4,38.4,55.4,38.4,55.4,38.3l-2,0.1v0.7h2.2c0.1,0,0.1,0,0.1,0.1v1.1c0,0.1,0,0.1-0.1,0.1h-3.7
			c-0.1,0-0.1,0-0.1-0.1v-5c0-0.1,0-0.1,0.1-0.1h3.5c0.1,0,0.1,0,0.1,0.1v1.1c0,0.1,0,0.1-0.1,0.1h-2.1v0.6h1.9c0.1,0,0.1,0,0.1,0.1
			V38.3z"/>
		<path class="st0" d="M60.3,39.2c0,0.2-0.1,0.4-0.1,0.6c-0.1,0.2-0.1,0.4-0.1,0.6c0,0,0,0.1-0.1,0.1h-1.5c0,0-0.1,0-0.1,0
			c0,0,0-0.1,0-0.1l1.6-5c0,0,0-0.1,0.1-0.1h1.9c0,0,0.1,0,0.1,0.1l1.7,5c0,0,0,0.1,0,0.1c0,0,0,0-0.1,0H62c0,0,0,0,0,0c0,0,0,0,0,0
			l-0.4-1.1H60.3z M61.3,38c0-0.1-0.1-0.3-0.1-0.4c0-0.1-0.1-0.3-0.1-0.4c0-0.1-0.1-0.2-0.1-0.3c0-0.1-0.1-0.2-0.1-0.3l0,0
			c0,0,0-0.1,0-0.1c0,0,0,0,0,0c0,0,0,0,0-0.1c0,0,0,0.1,0,0.1c0,0,0,0.1,0,0.1c0,0.1,0,0.2-0.1,0.2c0,0.1,0,0.2-0.1,0.2h0
			c0,0.1-0.1,0.3-0.1,0.4c0,0.1-0.1,0.2-0.1,0.4H61.3z"/>
		<path class="st0" d="M72,35.2C72.1,35.2,72.1,35.2,72,35.2l0.1,1.8h1.7v-1.7c0-0.1,0-0.1,0.1-0.1h1.4c0.1,0,0.1,0,0.1,0.1v5
			c0,0.1,0,0.1-0.1,0.1h-1.4c-0.1,0-0.1,0-0.1-0.1v-1.9h-1.7v1.9c0,0.1,0,0.1-0.1,0.1h-1.4c-0.1,0-0.1,0-0.1-0.1v-5
			c0-0.1,0-0.1,0.1-0.1H72z"/>
		<path class="st0" d="M80.1,40.3c-0.3-0.1-0.6-0.3-0.9-0.6c-0.2-0.2-0.4-0.5-0.5-0.8c-0.1-0.3-0.2-0.7-0.2-1c0-0.4,0.1-0.8,0.2-1.1
			c0.1-0.3,0.3-0.6,0.6-0.9c0.2-0.2,0.5-0.4,0.9-0.6c0.3-0.1,0.7-0.2,1.2-0.2c0.4,0,0.8,0.1,1.2,0.2c0.3,0.1,0.6,0.3,0.9,0.6
			c0.2,0.2,0.4,0.5,0.5,0.8c0.1,0.3,0.2,0.7,0.2,1.1c0,0.4-0.1,0.8-0.2,1.1c-0.1,0.3-0.3,0.6-0.6,0.9c-0.2,0.2-0.5,0.4-0.9,0.6
			c-0.4,0.1-0.7,0.2-1.2,0.2C80.8,40.5,80.4,40.4,80.1,40.3z M81.7,39.1c0.1-0.1,0.3-0.2,0.4-0.3c0.1-0.1,0.2-0.3,0.2-0.4
			c0.1-0.2,0.1-0.4,0.1-0.6c0-0.2,0-0.4-0.1-0.6c-0.1-0.2-0.1-0.3-0.2-0.5c-0.1-0.1-0.2-0.2-0.4-0.3c-0.1-0.1-0.3-0.1-0.5-0.1
			c-0.2,0-0.3,0-0.5,0.1c-0.1,0.1-0.3,0.2-0.4,0.3c-0.1,0.1-0.2,0.3-0.2,0.5c-0.1,0.2-0.1,0.4-0.1,0.6c0,0.2,0,0.4,0.1,0.6
			c0.1,0.2,0.1,0.3,0.2,0.4c0.1,0.1,0.2,0.2,0.4,0.3c0.1,0.1,0.3,0.1,0.5,0.1C81.4,39.2,81.6,39.2,81.7,39.1z"/>
		<path class="st0" d="M88.6,35.2C88.7,35.2,88.7,35.2,88.6,35.2l0.1,2.8c0,0.4,0.1,0.7,0.2,0.9c0.1,0.2,0.3,0.3,0.6,0.3
			c0.3,0,0.5-0.1,0.6-0.3c0.1-0.2,0.2-0.5,0.2-0.9v-2.7c0-0.1,0-0.1,0.1-0.1h1.4c0.1,0,0.1,0,0.1,0.1V38c0,0.8-0.2,1.5-0.6,1.9
			c-0.4,0.4-1,0.6-1.8,0.6c-0.4,0-0.7,0-1-0.1c-0.3-0.1-0.5-0.2-0.7-0.5c-0.2-0.2-0.4-0.5-0.5-0.8c-0.1-0.3-0.2-0.7-0.2-1.1v-2.6
			c0-0.1,0-0.1,0.1-0.1H88.6z"/>
		<path class="st0" d="M95.2,38.9C95.2,38.8,95.2,38.8,95.2,38.9c0.1-0.1,0.1-0.1,0.1-0.1c0.2,0.1,0.4,0.2,0.6,0.2
			c0.2,0.1,0.5,0.1,0.8,0.1c0.4,0,0.6-0.1,0.6-0.3c0-0.1-0.3-0.3-0.8-0.4c-0.2-0.1-0.4-0.1-0.6-0.2c-0.2-0.1-0.4-0.2-0.5-0.3
			c-0.2-0.1-0.3-0.3-0.4-0.5c-0.1-0.2-0.1-0.4-0.1-0.6c0-0.2,0.1-0.5,0.2-0.7c0.1-0.2,0.2-0.4,0.4-0.5c0.2-0.1,0.4-0.3,0.7-0.3
			c0.3-0.1,0.6-0.1,0.9-0.1c0.4,0,0.7,0,0.9,0.1c0.2,0.1,0.5,0.1,0.7,0.2c0.1,0,0.1,0.1,0.1,0.1l-0.3,1.1c0,0.1-0.1,0.1-0.1,0.1
			c-0.1-0.1-0.3-0.1-0.5-0.2c-0.2-0.1-0.4-0.1-0.7-0.1c-0.2,0-0.3,0-0.4,0.1c-0.1,0-0.1,0.1-0.1,0.2c0,0.1,0.1,0.2,0.2,0.2
			c0.1,0.1,0.4,0.1,0.7,0.2c0.5,0.2,0.9,0.4,1.1,0.6c0.2,0.3,0.4,0.6,0.4,1c0,0.2,0,0.4-0.1,0.6c-0.1,0.2-0.2,0.4-0.4,0.5
			c-0.2,0.2-0.4,0.3-0.7,0.4c-0.3,0.1-0.6,0.1-1.1,0.1c-0.2,0-0.3,0-0.5,0c-0.2,0-0.3,0-0.5-0.1c-0.1,0-0.3-0.1-0.4-0.1
			c-0.1,0-0.2-0.1-0.3-0.1c0,0,0,0,0,0c0,0,0,0,0-0.1L95.2,38.9z"/>
		<path class="st0" d="M105.6,38.3C105.6,38.4,105.6,38.4,105.6,38.3l-2,0.1v0.7h2.2c0.1,0,0.1,0,0.1,0.1v1.1c0,0.1,0,0.1-0.1,0.1
			h-3.7c-0.1,0-0.1,0-0.1-0.1v-5c0-0.1,0-0.1,0.1-0.1h3.5c0.1,0,0.1,0,0.1,0.1v1.1c0,0.1,0,0.1-0.1,0.1h-2.1v0.6h1.9
			c0.1,0,0.1,0,0.1,0.1V38.3z"/>
	</g>
</g>
</svg>
