<?xml version="1.0" encoding="utf-8"?>
<!-- Generator: Adobe Illustrator 23.0.5, SVG Export Plug-In . SVG Version: 6.00 Build 0)  -->
<svg version="1.1" id="Layer_1" xmlns="http://www.w3.org/2000/svg" xmlns:xlink="http://www.w3.org/1999/xlink" x="0px" y="0px"
	 viewBox="0 0 150 26.3" style="enable-background:new 0 0 150 26.3;" xml:space="preserve">
<style type="text/css">
	.st0{display:none;fill:#D32428;}
	.st1{fill:#D32428;}
</style>
<g>
	<path class="st0" d="M156.8,30.6c-55.6,0-111.2,0-166.8,0c0-11.6,0-23.3,0-34.9c55.6,0,111.2,0,166.8,0
		C156.8,7.3,156.8,19,156.8,30.6z M13.2,23.9c-3.4-0.5-4.9-1.6-5.6-5.1c-0.3-2.1-0.5-4.4-0.5-6.6c0.2-2,0.5-3.9,1.1-5.7
		c0.7-2.1,2.5-3,4.4-2.8c1.1,0.2,2.1,0.7,2.3,1.8c0.3,1.1,0.5,2.3-0.7,3.3C14,9,14,9.6,14.2,10.1c0.5,1.3,2.3,2.1,3.6,1.5
		c1.3-0.5,2-1.8,1.5-3.4c-0.2-0.7-0.7-1.3-1.1-2c-1.8-2-4.1-3-6.9-2.6C5.3,4,0.9,9.5,1.5,15.4C2.2,20.6,7.9,24.7,13.2,23.9z
		 M27.4,23.7c0-7.5,0-14.8,0-22.1c-1.8,0-3.4,0-5.1,0c0,0.5,0,0.8,0,1.1c0,6.6,0,13.1,0,19.8c0,0.5-0.2,1.3,0.8,1.1
		C24.5,23.7,26,23.7,27.4,23.7z M75.2,4.9c0.2,0,0.2,0,0.3,0c2.6,6.2,5.2,12.5,8,19c1.1-2.5,2-4.8,3-7.1c0-0.2,0-0.3,0-0.5
		c-1.8-3.9-3.6-7.9-5.6-11.8c-0.2-0.3-0.5-0.7-0.8-0.7c-1.8,0-3.4,0-5.2,0c0,6.6,0,13.1,0,19.5H75C75.2,17.2,75.2,10.9,75.2,4.9z
		 M97.3,23.7c0-2.3,0-4.4,0-6.6c0-4.1,0-8,0-12.1c0-0.5,0.2-1.1-0.7-1.1c-1.3,0-2.6,0-3.9,0c-0.3,0-0.7,0.7-0.8,1.1
		c0,0.5,0.3,1.1,0.3,1.6c0,5.2,0,10.5,0,15.7c0,0.5,0,0.8,0,1.3C93.9,23.7,95.5,23.7,97.3,23.7z M114.4,14.5c0-3.6-2.8-5.7-6.7-5.7
		c-4.1,0.2-7.4,3.4-7.5,7.4c-0.2,3.9,3,7.4,6.9,7.9c3.8,0.3,6.9-1.8,7.5-5.7c-0.3,0.5-0.5,1-0.8,1.5c-1.5,2.3-4.3,2.8-6.2,1.3
		c-2.1-1.6-2.5-3.9-2.5-6.6C108.3,14.5,111.4,14.5,114.4,14.5z M29.7,10c2-0.5,2.5,0,2.5,2c0,3.4,0,6.9,0,10.3c0,0.5,0,0.8,0,1.3
		c1.5,0,2.6,0,3.9,0c1,0,1.1-0.3,1.1-1.1c0-3.4,0-6.9,0-10.3c0-1.8-1-3-2.6-3.4C32.7,8.3,31.2,8.8,29.7,10z M122.9,9.1
		c-1.6,0-3.1,0-4.4,0c-0.2,0-0.7,0.5-0.7,0.8c0,4.3,0,8.5,0,13c0,0.3,0.3,0.8,0.5,0.8c1.5,0,3,0,4.6,0
		C122.9,18.8,122.9,14.2,122.9,9.1z M63.5,9.3c-1.5,0-2.6,0-3.9,0c-1,0-1.1,0.3-1.1,1.1c0,4.1,0,8.2,0,12.5c0,0.3,0,0.5,0.2,0.8
		c1.6,0,3.3,0,4.9,0C63.5,18.8,63.5,14.1,63.5,9.3z M55,22.6c-0.3-0.8-0.7-1.3-0.7-1.8c0-1.8,0-3.8,0-5.6c0-3.6-2.8-6.2-6.2-6.1
		c0.3,0.8,1,1.8,1.1,2.8c0.2,3,0.2,5.9,0,8.7c0,1.6,0.8,3,2.3,3.3C53,24.4,54.3,23.7,55,22.6z M147.8,22.6c-0.3-0.7-0.7-1.1-0.7-1.6
		c0-2,0-3.9,0-5.9c0-3.4-3-6.1-6.1-5.9c0.3,1,1,2,1,3c0.2,2.8,0.2,5.6,0,8.4c0,1.8,0.7,3.1,2.1,3.4
		C145.7,24.4,147.1,23.7,147.8,22.6z M48.4,21.9c-2.1,0.5-3.1,0.2-3.3-1.3c-0.2-1.3-0.2-2.6,1-3.8c0.7-0.7,1.3-1.1,2-2
		c-1.5,0.7-2.8,1.1-4.1,1.6c-0.7,0.3-1.3,0.7-1.8,1c-1.3,0.8-2,2-1.6,3.4c0.2,1.5,1.1,2.1,2.3,2.6C44.5,24.5,46.6,23.9,48.4,21.9z
		 M140.6,15c-2,0.8-3.9,1.6-5.9,2.6c-1.3,0.7-1.8,1.8-1.6,3.3c0.2,1.3,1,2.1,2.1,2.6c2,0.8,4.6,0.2,5.9-1.6
		c-2.6,0.5-3.6-0.5-3.3-3.1C138.1,17.2,139.4,16.2,140.6,15z M125.8,9.1c1.3,0,2.1,0.7,2.3,1.8c0.2,1.1-0.3,2-1.1,2.6
		c-0.7,0.5-0.5,1-0.2,1.5c1,1.3,3.1,1.1,4.1-0.3c0.8-1.3,0.7-3.3-0.3-4.3C129.4,9.1,127.6,8.6,125.8,9.1z M60.9,7
		c1.5,0,3-1.3,2.8-2.8c0-1.3-1.3-2.6-2.6-2.6c-1.5,0-2.8,1.1-2.8,2.6C58.3,5.5,59.6,7,60.9,7z M45.6,9c-2.1,0.3-3.8,1-4.6,2.8
		c-0.5,1.1,0,2.6,1.1,3.1c1.1,0.5,2.5,0,3.1-1.3C43.8,12.2,43.7,10.4,45.6,9z M138,13.6c-1.3-1.3-1.5-3.3,0.5-4.8
		c-2.1,0.3-3.8,1-4.6,2.8c-0.5,1.1,0,2.6,1.1,3.1C136.2,15.4,137.3,14.9,138,13.6z"/>
	<path class="st1" d="M13.2,23.9c-5.4,0.8-11-3.4-11.6-8.5C0.7,9.5,5.1,4,11.2,3.6c2.8-0.2,5.2,0.7,7.1,2.8c0.5,0.5,0.8,1.1,1.1,2
		c0.5,1.5,0,2.8-1.5,3.4c-1.5,0.5-3.1-0.2-3.6-1.5c-0.2-0.3,0-1,0.2-1.3c1.1-1,1-2.1,0.7-3.3C14.8,4.5,14,4,12.9,3.9
		c-2-0.3-3.6,0.5-4.4,2.6c-0.7,1.8-1.1,3.9-1.1,5.7c-0.2,2.1,0,4.4,0.5,6.6C8.3,22.3,9.7,23.4,13.2,23.9z"/>
	<path class="st1" d="M27.4,23.7c-1.6,0-3,0-4.3,0c-1,0-0.8-0.7-0.8-1.1c0-6.6,0-13.1,0-19.8c0-0.3,0-0.7,0-1.1c1.6,0,3.3,0,5.1,0
		C27.4,9,27.4,16.2,27.4,23.7z"/>
	<path class="st1" d="M75.2,4.9c0,6.1,0,12.1,0,18.4H75c0-6.4,0-12.8,0-19.5c1.8,0,3.6,0,5.2,0c0.3,0,0.7,0.3,0.8,0.7
		c1.8,3.9,3.8,7.9,5.6,11.8c0,0.2,0,0.3,0,0.5c-1,2.3-2,4.4-3,7.1c-2.8-6.6-5.4-12.8-8-19C75.3,4.9,75.3,4.9,75.2,4.9z"/>
	<path class="st1" d="M97.3,23.7c-1.8,0-3.4,0-5.1,0c0-0.5,0-1,0-1.3c0-5.2,0-10.5,0-15.7c0-0.5-0.3-1.1-0.3-1.6
		c0-0.3,0.5-1,0.8-1.1c1.3-0.2,2.6,0,3.9,0c0.8,0,0.7,0.7,0.7,1.1c0,4.1,0,8,0,12.1C97.3,19.1,97.3,21.4,97.3,23.7z"/>
	<path class="st1" d="M114.4,14.5c-3.1,0-6.1,0-9.3,0c0.2,2.6,0.5,4.9,2.5,6.6c2,1.5,4.6,1,6.2-1.3c0.3-0.5,0.5-1,0.8-1.5
		c-0.7,3.8-3.8,6.1-7.5,5.7c-3.9-0.5-6.9-3.9-6.9-7.9c0.2-3.9,3.4-7.2,7.5-7.4C111.6,8.6,114.4,10.8,114.4,14.5z M109.9,14.4
		c-0.2-1.3-0.3-2.6-0.7-3.9c-0.2-0.5-0.8-1.3-1.3-1.3c-0.5,0-1.5,0.5-1.6,0.8c-0.7,1.3-1,2.8-1.5,4.3
		C106.6,14.4,108.1,14.4,109.9,14.4z"/>
	<path class="st1" d="M29.7,10c1.5-1.1,3.1-1.6,4.9-1.1c1.8,0.5,2.6,1.6,2.6,3.4c0,3.4,0,6.9,0,10.3c0,0.8-0.2,1.1-1.1,1.1
		c-1.3,0-2.5,0-3.9,0c0-0.5,0-1,0-1.3c0-3.4,0-6.9,0-10.3C32.2,10,31.5,9.5,29.7,10z"/>
	<path class="st1" d="M122.9,9.1c0,4.9,0,9.7,0,14.4c-1.6,0-3.1,0-4.6,0c-0.2,0-0.5-0.5-0.5-0.8c0-4.3,0-8.5,0-13
		c0-0.3,0.5-0.8,0.7-0.8C119.8,9.1,121.2,9.1,122.9,9.1z"/>
	<path class="st1" d="M63.5,9.3c0,4.9,0,9.7,0,14.4c-1.6,0-3.3,0-4.9,0c0-0.3-0.2-0.7-0.2-0.8c0-4.1,0-8.2,0-12.5
		c0-0.8,0.2-1.1,1.1-1.1C60.9,9.3,62,9.3,63.5,9.3z"/>
	<path class="st1" d="M55,22.6c-0.7,1.1-2,1.8-3.4,1.3c-1.5-0.3-2.3-1.8-2.3-3.3c0-3,0.2-5.9,0-8.7c0-1-0.7-2-1.1-2.8
		c3.3-0.2,6.2,2.5,6.2,6.1c0,1.8,0,3.8,0,5.6C54.3,21.3,54.7,21.8,55,22.6z"/>
	<path class="st1" d="M147.8,22.6c-0.8,1.3-2.3,1.8-3.6,1.3c-1.5-0.5-2.1-1.6-2.1-3.4c0-2.8,0.2-5.6,0-8.4c0-1-0.7-2-1-3
		c3.1-0.2,6.1,2.5,6.1,5.9c0,2,0,3.9,0,5.9C147.1,21.4,147.5,21.8,147.8,22.6z"/>
	<path class="st1" d="M48.4,21.9c-1.6,2-3.8,2.6-5.7,1.8c-1.1-0.5-2.1-1.1-2.3-2.6c-0.2-1.5,0.5-2.6,1.6-3.4c0.7-0.3,1.3-0.7,1.8-1
		c1.3-0.5,2.6-1.1,4.1-1.6c-0.8,0.7-1.5,1.3-2,2c-1,1-1.1,2.5-1,3.8C45.3,22.1,46.3,22.4,48.4,21.9z"/>
	<path class="st1" d="M140.6,15c-1.1,1.1-2.5,2.1-2.8,3.8c-0.3,2.8,0.5,3.6,3.3,3.1c-1.3,1.8-3.8,2.6-5.9,1.6
		c-1.1-0.5-2-1.3-2.1-2.6c-0.2-1.5,0.3-2.6,1.6-3.3C136.7,16.7,138.6,15.9,140.6,15z"/>
	<path class="st1" d="M125.8,9.1c1.8-0.7,3.6-0.2,4.8,1.1c1,1.1,1,3.1,0.3,4.3c-1,1.5-3.1,1.8-4.1,0.3c-0.3-0.5-0.5-1,0.2-1.5
		c0.8-0.7,1.3-1.5,1.1-2.6C128,9.8,127.1,9.1,125.8,9.1z"/>
	<path class="st1" d="M60.9,7c-1.5,0-2.8-1.5-2.6-2.8c0-1.5,1.5-2.6,2.8-2.6c1.3,0,2.6,1.3,2.6,2.6C63.8,5.7,62.5,7,60.9,7z"/>
	<path class="st1" d="M45.6,9c-2,1.5-1.8,3.3-0.5,4.8C44.5,15,43.4,15.5,42,15c-1.1-0.5-1.6-2-1.1-3.1C41.9,10,43.5,9.3,45.6,9z"/>
	<path class="st1" d="M138,13.6c-0.7,1.3-1.8,1.8-3.1,1.3c-1.1-0.5-1.6-2-1.1-3.1c0.8-1.8,2.6-2.5,4.6-2.8
		C136.5,10.4,136.7,12.2,138,13.6z"/>
	<path class="st0" d="M109.9,14.4c-1.8,0-3.3,0-5.2,0c0.5-1.6,0.8-3,1.5-4.3c0.2-0.5,1.1-1,1.6-0.8c0.5,0,1.1,0.8,1.3,1.3
		C109.6,11.6,109.8,12.9,109.9,14.4z"/>
</g>
</svg>
